<svg width="19" height="25" viewBox="0 0 19 25" fill="none" xmlns="http://www.w3.org/2000/svg">
<g clip-path="url(#clip0_2254_29484)">
<path d="M16.3313 24.0195H2.35873C1.73329 24.0191 1.13359 23.7704 0.691337 23.3282C0.249085 22.8859 0.000436911 22.2862 0 21.6608V2.36215C0.000872722 1.73684 0.24966 1.1374 0.691818 0.695241C1.13398 0.253083 1.73342 0.00429069 2.35873 0.00341797H16.3313C16.9566 0.00429069 17.556 0.253083 17.9982 0.695241C18.4403 1.1374 18.6891 1.73684 18.69 2.36215V21.6608C18.6891 22.2861 18.4403 22.8855 17.9982 23.3277C17.556 23.7699 16.9566 24.0186 16.3313 24.0195ZM2.35873 1.68092C2.17718 1.68092 2.00307 1.75304 1.87469 1.88141C1.74632 2.00979 1.6742 2.1839 1.6742 2.36544V21.6641C1.6742 21.8456 1.74632 22.0198 1.87469 22.1481C2.00307 22.2765 2.17718 22.3486 2.35873 22.3486H16.3313C16.5128 22.3486 16.6869 22.2765 16.8153 22.1481C16.9437 22.0198 17.0158 21.8456 17.0158 21.6641V2.36544C17.0158 2.1839 16.9437 2.00979 16.8153 1.88141C16.6869 1.75304 16.5128 1.68092 16.3313 1.68092H2.35873Z" fill="white"/>
<path d="M13.7955 4.29672H5.07976C4.95836 4.29152 4.83716 4.31095 4.72346 4.35382C4.60976 4.3967 4.50592 4.46214 4.41818 4.5462C4.33044 4.63027 4.26061 4.73122 4.21291 4.84298C4.16522 4.95473 4.14063 5.07499 4.14062 5.19651C4.14063 5.31802 4.16522 5.43828 4.21291 5.55003C4.26061 5.66179 4.33044 5.76274 4.41818 5.84681C4.50592 5.93087 4.60976 5.99631 4.72346 6.03918C4.83716 6.08206 4.95836 6.10148 5.07976 6.09628H13.7955C13.9169 6.10148 14.0381 6.08206 14.1518 6.03918C14.2655 5.99631 14.3693 5.93087 14.4571 5.84681C14.5448 5.76274 14.6146 5.66179 14.6623 5.55003C14.71 5.43828 14.7346 5.31802 14.7346 5.19651C14.7346 5.07499 14.71 4.95473 14.6623 4.84298C14.6146 4.73122 14.5448 4.63027 14.4571 4.5462C14.3693 4.46214 14.2655 4.3967 14.1518 4.35382C14.0381 4.31095 13.9169 4.29152 13.7955 4.29672Z" fill="white"/>
<path d="M13.796 8.83789H5.08029C4.84143 8.83789 4.61236 8.93277 4.44347 9.10167C4.27457 9.27056 4.17969 9.49964 4.17969 9.73849C4.17969 9.97735 4.27457 10.2064 4.44347 10.3753C4.61236 10.5442 4.84143 10.6391 5.08029 10.6391H13.796C14.0349 10.6391 14.264 10.5442 14.4328 10.3753C14.6017 10.2064 14.6966 9.97735 14.6966 9.73849C14.6966 9.49964 14.6017 9.27056 14.4328 9.10167C14.264 8.93277 14.0349 8.83789 13.796 8.83789Z" fill="white"/>
<path d="M13.796 13.3804H5.08029C4.84143 13.3804 4.61236 13.4753 4.44347 13.6442C4.27457 13.8131 4.17969 14.0421 4.17969 14.281C4.17969 14.5198 4.27457 14.7489 4.44347 14.9178C4.61236 15.0867 4.84143 15.1816 5.08029 15.1816H13.796C14.0349 15.1816 14.264 15.0867 14.4328 14.9178C14.6017 14.7489 14.6966 14.5198 14.6966 14.281C14.6966 14.0421 14.6017 13.8131 14.4328 13.6442C14.264 13.4753 14.0349 13.3804 13.796 13.3804Z" fill="white"/>
<path d="M13.796 17.9229H5.08029C4.84143 17.9229 4.61236 18.0177 4.44347 18.1866C4.27457 18.3555 4.17969 18.5846 4.17969 18.8235C4.17969 19.0623 4.27457 19.2914 4.44347 19.4603C4.61236 19.6292 4.84143 19.7241 5.08029 19.7241H13.796C14.0349 19.7241 14.264 19.6292 14.4328 19.4603C14.6017 19.2914 14.6966 19.0623 14.6966 18.8235C14.6966 18.5846 14.6017 18.3555 14.4328 18.1866C14.264 18.0177 14.0349 17.9229 13.796 17.9229Z" fill="white"/>
</g>
<defs>
<clipPath id="clip0_2254_29484">
<rect width="18.69" height="24.0194" fill="white"/>
</clipPath>
</defs>
</svg>
