<svg width="31" height="31" viewBox="0 0 31 31" fill="none" xmlns="http://www.w3.org/2000/svg">
<path d="M11.4167 3.875H5.375C4.54657 3.875 3.875 4.54657 3.875 5.375V11.4167C3.875 12.2451 4.54657 12.9167 5.375 12.9167H11.4167C12.2451 12.9167 12.9167 12.2451 12.9167 11.4167V5.375C12.9167 4.54657 12.2451 3.875 11.4167 3.875Z" stroke="#2254F4" stroke-width="1.5" stroke-linecap="round" stroke-linejoin="round"/>
<path d="M25.6237 3.875H19.582C18.7536 3.875 18.082 4.54657 18.082 5.375V11.4167C18.082 12.2451 18.7536 12.9167 19.582 12.9167H25.6237C26.4521 12.9167 27.1237 12.2451 27.1237 11.4167V5.375C27.1237 4.54657 26.4521 3.875 25.6237 3.875Z" stroke="#2254F4" stroke-width="1.5" stroke-linecap="round" stroke-linejoin="round"/>
<path d="M25.6237 18.0833H19.582C18.7536 18.0833 18.082 18.7548 18.082 19.5833V25.6249C18.082 26.4533 18.7536 27.1249 19.582 27.1249H25.6237C26.4521 27.1249 27.1237 26.4533 27.1237 25.6249V19.5833C27.1237 18.7548 26.4521 18.0833 25.6237 18.0833Z" stroke="#2254F4" stroke-width="1.5" stroke-linecap="round" stroke-linejoin="round"/>
<path d="M11.4167 18.0833H5.375C4.54657 18.0833 3.875 18.7548 3.875 19.5833V25.6249C3.875 26.4533 4.54657 27.1249 5.375 27.1249H11.4167C12.2451 27.1249 12.9167 26.4533 12.9167 25.6249V19.5833C12.9167 18.7548 12.2451 18.0833 11.4167 18.0833Z" stroke="#2254F4" stroke-width="1.5" stroke-linecap="round" stroke-linejoin="round"/>
</svg>
