<svg width="25" height="25" viewBox="0 0 25 25" fill="none" xmlns="http://www.w3.org/2000/svg">
<path d="M19.5303 0H5.46812C4.01788 0 2.62704 0.576105 1.60157 1.60158C0.576101 2.62705 0 4.01789 0 5.46812V19.5303C0 20.2484 0.14144 20.9595 0.416239 21.6229C0.691038 22.2863 1.09381 22.8891 1.60157 23.3969C2.10933 23.9046 2.71214 24.3074 3.37556 24.5822C4.03898 24.857 4.75003 24.9984 5.46812 24.9984H19.5303C20.2484 24.9984 20.9595 24.857 21.6229 24.5822C22.2863 24.3074 22.8891 23.9046 23.3969 23.3969C23.9046 22.8891 24.3074 22.2863 24.5822 21.6229C24.857 20.9595 24.9984 20.2484 24.9984 19.5303V5.46812C24.9984 4.01789 24.4223 2.62705 23.3969 1.60158C22.3714 0.576105 20.9806 0 19.5303 0ZM23.4355 19.5303C23.4357 20.0433 23.3348 20.5513 23.1386 21.0252C22.9425 21.4992 22.6549 21.9299 22.2922 22.2927C21.9296 22.6555 21.499 22.9433 21.0251 23.1396C20.5512 23.336 20.0433 23.437 19.5303 23.437H5.46812C4.43213 23.4366 3.43869 23.0249 2.70614 22.2923C1.97358 21.5598 1.56185 20.5663 1.56144 19.5303V5.46812C1.56185 4.43213 1.97358 3.43869 2.70614 2.70613C3.43869 1.97357 4.43213 1.56185 5.46812 1.56144H19.5303C20.0433 1.56144 20.5512 1.6625 21.0251 1.85885C21.499 2.05519 21.9296 2.34298 22.2922 2.70577C22.6549 3.06856 22.9425 3.49924 23.1386 3.97321C23.3348 4.44718 23.4357 4.95516 23.4355 5.46812V19.5303Z" fill="#2254F4"/>
<path d="M10.9347 6.24882H18.7465C18.8495 6.24778 18.9517 6.26731 19.0471 6.30626C19.1425 6.3452 19.2291 6.40279 19.302 6.47563C19.3748 6.54848 19.4324 6.63513 19.4714 6.73051C19.5103 6.82588 19.5298 6.92807 19.5288 7.03109C19.5288 7.13345 19.5085 7.2348 19.4691 7.32928C19.4297 7.42376 19.372 7.50949 19.2992 7.58151C19.2265 7.65353 19.1402 7.71043 19.0453 7.74889C18.9505 7.78736 18.8489 7.80663 18.7465 7.80561H10.9347C10.7293 7.80561 10.5323 7.72401 10.387 7.57876C10.2418 7.4335 10.1602 7.2365 10.1602 7.03109C10.1592 6.92873 10.1785 6.82718 10.2169 6.73231C10.2554 6.63745 10.3123 6.55115 10.3843 6.4784C10.4563 6.40566 10.542 6.34792 10.6365 6.30851C10.731 6.2691 10.8323 6.24881 10.9347 6.24882Z" fill="#2254F4"/>
<path d="M10.9347 11.7185H18.7465C18.8489 11.7175 18.9504 11.7368 19.0453 11.7753C19.1401 11.8137 19.2264 11.8706 19.2992 11.9426C19.3719 12.0147 19.4297 12.1004 19.4691 12.1949C19.5085 12.2893 19.5288 12.3907 19.5288 12.4931C19.5288 12.5954 19.5085 12.6968 19.4691 12.7913C19.4297 12.8857 19.3719 12.9715 19.2992 13.0435C19.2264 13.1155 19.1401 13.1724 19.0453 13.2109C18.9504 13.2493 18.8489 13.2686 18.7465 13.2676H10.9347C10.7293 13.2676 10.5323 13.186 10.387 13.0407C10.2418 12.8955 10.1602 12.6985 10.1602 12.4931C10.1602 12.2876 10.2418 12.0906 10.387 11.9454C10.5323 11.8001 10.7293 11.7185 10.9347 11.7185Z" fill="#2254F4"/>
<path d="M10.9347 17.1866H18.7465C18.8489 17.1855 18.9505 17.2048 19.0453 17.2433C19.1402 17.2817 19.2265 17.3386 19.2992 17.4107C19.372 17.4827 19.4297 17.5684 19.4691 17.6629C19.5085 17.7574 19.5288 17.8587 19.5288 17.9611C19.5298 18.0641 19.5103 18.1663 19.4714 18.2617C19.4324 18.357 19.3748 18.4437 19.302 18.5165C19.2291 18.5894 19.1425 18.647 19.0471 18.6859C18.9517 18.7249 18.8495 18.7444 18.7465 18.7434H10.9347C10.8323 18.7434 10.731 18.7231 10.6365 18.6837C10.542 18.6443 10.4563 18.5865 10.3843 18.5138C10.3123 18.441 10.2554 18.3547 10.2169 18.2599C10.1785 18.165 10.1592 18.0634 10.1602 17.9611C10.1602 17.7557 10.2418 17.5587 10.387 17.4134C10.5323 17.2682 10.7293 17.1866 10.9347 17.1866Z" fill="#2254F4"/>
<path d="M8.59082 7.031C8.59082 7.3402 8.49911 7.64244 8.3273 7.8995C8.15549 8.15657 7.91128 8.3569 7.6256 8.47515C7.33991 8.59341 7.02556 8.62427 6.72233 8.56384C6.4191 8.5034 6.14061 8.35439 5.92208 8.13565C5.70356 7.91691 5.55482 7.63826 5.49469 7.33497C5.43456 7.03168 5.46573 6.71737 5.58426 6.4318C5.7028 6.14623 5.90337 5.90223 6.16061 5.73067C6.41784 5.55912 6.72018 5.46771 7.02938 5.46802C7.23456 5.46802 7.43773 5.50846 7.62727 5.58702C7.81681 5.66559 7.98901 5.78074 8.13403 5.9259C8.27904 6.07105 8.39402 6.24337 8.4724 6.43299C8.55078 6.62261 8.59102 6.82582 8.59082 7.031Z" fill="#2254F4"/>
<path d="M8.59082 12.4993C8.59082 12.8085 8.49911 13.1107 8.3273 13.3678C8.15549 13.6248 7.91128 13.8252 7.6256 13.9434C7.33991 14.0617 7.02556 14.0925 6.72233 14.0321C6.4191 13.9717 6.14061 13.8227 5.92208 13.6039C5.70356 13.3852 5.55482 13.1065 5.49469 12.8032C5.43456 12.4999 5.46573 12.1856 5.58426 11.9001C5.7028 11.6145 5.90337 11.3705 6.16061 11.1989C6.41784 11.0274 6.72018 10.936 7.02938 10.9363C7.23456 10.9363 7.43773 10.9767 7.62727 11.0553C7.81681 11.1339 7.98901 11.249 8.13403 11.3942C8.27904 11.5393 8.39402 11.7116 8.4724 11.9013C8.55078 12.0909 8.59102 12.2941 8.59082 12.4993Z" fill="#2254F4"/>
<path d="M8.59082 17.9674C8.59021 18.2765 8.49797 18.5785 8.32579 18.8351C8.1536 19.0918 7.90919 19.2916 7.62345 19.4094C7.33771 19.5272 7.02347 19.5576 6.72044 19.4968C6.41741 19.436 6.13921 19.2868 5.921 19.0679C5.70278 18.849 5.55434 18.5704 5.49446 18.2672C5.43458 17.964 5.46594 17.6498 5.58456 17.3644C5.70319 17.079 5.90377 16.8352 6.16094 16.6638C6.4181 16.4924 6.72032 16.4011 7.02938 16.4014C7.4435 16.4014 7.84065 16.5659 8.13348 16.8587C8.42631 17.1515 8.59082 17.5487 8.59082 17.9628" fill="#2254F4"/>
</svg>
