<svg width="40" height="41" viewBox="0 0 40 41" fill="none" xmlns="http://www.w3.org/2000/svg">
<path d="M8.74899 0.5H31.2485C33.5689 0.5 35.7942 1.42177 37.435 3.06252C39.0757 4.70328 39.9975 6.92862 39.9975 9.249V31.7485C39.9975 32.8975 39.7712 34.0351 39.3315 35.0966C38.8919 36.1581 38.2474 37.1226 37.435 37.935C36.6226 38.7474 35.6581 39.3919 34.5966 39.8315C33.5351 40.2712 32.3975 40.4975 31.2485 40.4975H8.74899C7.60005 40.4975 6.46237 40.2712 5.40089 39.8315C4.33942 39.3919 3.37493 38.7474 2.56252 37.935C1.7501 37.1226 1.10566 36.1581 0.665982 35.0966C0.226304 34.0351 0 32.8975 0 31.7485V9.249C0 6.92862 0.921761 4.70328 2.56252 3.06252C4.20327 1.42177 6.42861 0.5 8.74899 0.5Z" fill="#2254F4"/>
<path d="M17.4971 10.4981H29.996C30.1608 10.4965 30.3243 10.5277 30.4769 10.59C30.6295 10.6523 30.7682 10.7445 30.8847 10.861C31.0013 10.9776 31.0934 11.1162 31.1557 11.2688C31.2181 11.4214 31.2493 11.5849 31.2477 11.7497C31.2477 11.9135 31.2152 12.0757 31.1521 12.2269C31.0891 12.378 30.9967 12.5152 30.8803 12.6304C30.7639 12.7457 30.6259 12.8367 30.4741 12.8982C30.3223 12.9598 30.1598 12.9906 29.996 12.989H17.4971C17.1684 12.989 16.8532 12.8584 16.6208 12.626C16.3884 12.3936 16.2579 12.0784 16.2579 11.7497C16.2562 11.586 16.2871 11.4235 16.3486 11.2717C16.4102 11.1199 16.5012 10.9818 16.6164 10.8654C16.7317 10.7491 16.8688 10.6567 17.02 10.5936C17.1712 10.5306 17.3333 10.4981 17.4971 10.4981Z" fill="white"/>
<path d="M17.497 19.2496H29.996C30.1597 19.2479 30.3222 19.2788 30.474 19.3403C30.6258 19.4019 30.7639 19.4929 30.8803 19.6081C30.9967 19.7234 31.089 19.8605 31.1521 20.0117C31.2151 20.1629 31.2476 20.325 31.2476 20.4888C31.2476 20.6526 31.2151 20.8148 31.1521 20.9659C31.089 21.1171 30.9967 21.2543 30.8803 21.3695C30.7639 21.4847 30.6258 21.5757 30.474 21.6373C30.3222 21.6988 30.1597 21.7297 29.996 21.728H17.497C17.1684 21.728 16.8532 21.5975 16.6208 21.3651C16.3884 21.1327 16.2578 20.8175 16.2578 20.4888C16.2578 20.1601 16.3884 19.8449 16.6208 19.6125C16.8532 19.3801 17.1684 19.2496 17.497 19.2496Z" fill="white"/>
<path d="M17.4971 27.9986H29.996C30.1598 27.997 30.3223 28.0278 30.4741 28.0893C30.6259 28.1509 30.7639 28.2419 30.8803 28.3571C30.9967 28.4724 31.0891 28.6096 31.1521 28.7607C31.2152 28.9119 31.2477 29.074 31.2477 29.2378C31.2493 29.4027 31.2181 29.5662 31.1557 29.7188C31.0934 29.8714 31.0013 30.01 30.8847 30.1266C30.7682 30.2431 30.6295 30.3352 30.4769 30.3976C30.3243 30.4599 30.1608 30.4911 29.996 30.4895H17.4971C17.3333 30.4895 17.1712 30.457 17.02 30.394C16.8688 30.3309 16.7317 30.2385 16.6164 30.1221C16.5012 30.0057 16.4102 29.8677 16.3486 29.7159C16.2871 29.5641 16.2562 29.4016 16.2579 29.2378C16.2579 28.9092 16.3884 28.594 16.6208 28.3616C16.8532 28.1292 17.1684 27.9986 17.4971 27.9986Z" fill="white"/>
<path d="M13.7476 11.7498C13.7476 12.2445 13.6009 12.7281 13.326 13.1394C13.0511 13.5507 12.6604 13.8712 12.2033 14.0604C11.7462 14.2496 11.2432 14.299 10.7581 14.2023C10.2729 14.1056 9.82732 13.8672 9.47768 13.5172C9.12804 13.1672 8.89006 12.7214 8.79385 12.2361C8.69763 11.7509 8.74751 11.248 8.93716 10.7911C9.12682 10.3342 9.44774 9.94376 9.85931 9.66927C10.2709 9.39478 10.7546 9.24853 11.2493 9.24902C11.5776 9.24902 11.9027 9.31373 12.206 9.43943C12.5092 9.56514 12.7848 9.74938 13.0168 9.98163C13.2488 10.2139 13.4328 10.4896 13.5582 10.793C13.6836 11.0964 13.748 11.4215 13.7476 11.7498Z" fill="white"/>
<path d="M13.7476 20.4988C13.7476 20.9935 13.6009 21.4771 13.326 21.8884C13.0511 22.2997 12.6604 22.6203 12.2033 22.8095C11.7462 22.9987 11.2432 23.0481 10.7581 22.9514C10.2729 22.8547 9.82732 22.6163 9.47768 22.2663C9.12804 21.9163 8.89006 21.4705 8.79385 20.9852C8.69763 20.4999 8.74751 19.997 8.93716 19.5401C9.12682 19.0832 9.44774 18.6928 9.85931 18.4183C10.2709 18.1438 10.7546 17.9976 11.2493 17.998C11.5776 17.998 11.9027 18.0628 12.206 18.1885C12.5092 18.3142 12.7848 18.4984 13.0168 18.7307C13.2488 18.9629 13.4328 19.2386 13.5582 19.542C13.6836 19.8454 13.748 20.1705 13.7476 20.4988Z" fill="white"/>
<path d="M13.7477 29.2477C13.7467 29.7422 13.5991 30.2253 13.3236 30.6359C13.0481 31.0466 12.6571 31.3663 12.1999 31.5548C11.7427 31.7432 11.2399 31.7919 10.755 31.6946C10.2702 31.5974 9.82508 31.3586 9.47594 31.0084C9.12679 30.6582 8.88929 30.2124 8.79348 29.7273C8.69767 29.2421 8.74784 28.7395 8.93765 28.2829C9.12745 27.8262 9.44837 27.4361 9.85984 27.1619C10.2713 26.8876 10.7549 26.7415 11.2494 26.7419C11.9119 26.7419 12.5474 27.0052 13.0159 27.4737C13.4844 27.9422 13.7477 28.5776 13.7477 29.2402" fill="white"/>
</svg>
