<svg width="27" height="28" viewBox="0 0 27 28" fill="none" xmlns="http://www.w3.org/2000/svg">
<g clip-path="url(#clip0_2254_29492)">
<path d="M22.537 9.67057L20.4597 7.59325C20.2643 7.40119 20.0009 7.29415 19.7269 7.29542C19.4529 7.2967 19.1904 7.40619 18.9968 7.60005C18.8032 7.79392 18.694 8.05646 18.693 8.33047C18.6921 8.60448 18.7994 8.86776 18.9917 9.06297L19.2964 9.36591H17.6501C16.8426 9.36657 16.0463 9.556 15.325 9.91908C14.6036 10.2822 13.9771 10.8088 13.4955 11.4571C13.014 10.8086 12.3876 10.2818 11.6662 9.91871C10.9448 9.55561 10.1485 9.3663 9.34083 9.36591H7.69282L7.9975 9.06297C8.18979 8.86776 8.29715 8.60448 8.29619 8.33047C8.29524 8.05646 8.18606 7.79392 7.99242 7.60005C7.79878 7.40619 7.53638 7.2967 7.26237 7.29542C6.98837 7.29415 6.72496 7.40119 6.52952 7.59325L4.4522 9.67057C4.25769 9.86532 4.14844 10.1293 4.14844 10.4046C4.14844 10.6798 4.25769 10.9438 4.4522 11.1386L6.52952 13.2159C6.72642 13.3993 6.98684 13.4992 7.25592 13.4945C7.52501 13.4897 7.78174 13.3807 7.97205 13.1904C8.16235 13.0001 8.27135 12.7434 8.2761 12.4743C8.28085 12.2052 8.18097 11.9448 7.9975 11.7479L7.69282 11.4432H9.34083C10.1672 11.4432 10.9598 11.7715 11.5442 12.3559C12.1285 12.9402 12.4568 13.7328 12.4568 14.5592V21.8298C12.4568 22.1053 12.5662 22.3695 12.761 22.5643C12.9558 22.7591 13.22 22.8685 13.4955 22.8685C13.7709 22.8685 14.0351 22.7591 14.2299 22.5643C14.4247 22.3695 14.5341 22.1053 14.5341 21.8298V14.5592C14.5341 13.7328 14.8624 12.9402 15.4468 12.3559C16.0311 11.7715 16.8237 11.4432 17.6501 11.4432H19.2964L18.9917 11.7479C18.8897 11.843 18.8078 11.9577 18.7511 12.0851C18.6943 12.2125 18.6638 12.35 18.6613 12.4895C18.6588 12.6289 18.6845 12.7675 18.7367 12.8968C18.789 13.0261 18.8667 13.1436 18.9654 13.2422C19.064 13.3409 19.1815 13.4186 19.3108 13.4709C19.4401 13.5231 19.5787 13.5488 19.7181 13.5463C19.8576 13.5438 19.9951 13.5133 20.1225 13.4565C20.2499 13.3998 20.3646 13.3179 20.4597 13.2159L22.537 11.1386C22.7315 10.9438 22.8408 10.6798 22.8408 10.4046C22.8408 10.1293 22.7315 9.86532 22.537 9.67057Z" fill="white"/>
<path d="M13.5026 0.0195312C10.832 0.0195313 8.22145 0.811447 6.00096 2.29513C3.78047 3.77882 2.04981 5.88763 1.02783 8.35491C0.00585189 10.8222 -0.261546 13.5371 0.259454 16.1564C0.780455 18.7756 2.06645 21.1815 3.95482 23.0699C5.8432 24.9583 8.24913 26.2443 10.8684 26.7653C13.4876 27.2863 16.2026 27.0189 18.6698 25.9969C21.1371 24.9749 23.2459 23.2443 24.7296 21.0238C26.2133 18.8033 27.0052 16.1927 27.0052 13.5221C27.002 9.942 25.5784 6.50943 23.0468 3.9779C20.5153 1.44636 17.0827 0.0227399 13.5026 0.0195312ZM13.5026 24.9474C11.2429 24.9474 9.03394 24.2773 7.15506 23.0219C5.27618 21.7665 3.81178 19.9821 2.94703 17.8944C2.08227 15.8067 1.85602 13.5095 2.29686 11.2932C2.73771 9.07689 3.82586 7.0411 5.42372 5.44325C7.02157 3.84539 9.05736 2.75724 11.2736 2.31639C13.4899 1.87554 15.7872 2.10181 17.8749 2.96656C19.9626 3.83131 21.7469 5.29571 23.0024 7.17459C24.2578 9.05347 24.9279 11.2624 24.9279 13.5221C24.9238 16.5506 23.7185 19.4537 21.5766 21.5946C19.4347 23.7356 16.531 24.9395 13.5026 24.9422V24.9474Z" fill="white"/>
</g>
<defs>
<clipPath id="clip0_2254_29492">
<rect width="27" height="27" fill="white" transform="translate(0 0.0195312)"/>
</clipPath>
</defs>
</svg>
