<svg width="75" height="98" viewBox="0 0 75 98" fill="none" xmlns="http://www.w3.org/2000/svg">
<g clip-path="url(#clip0_2325_29954)">
<path d="M10.6765 96.8378C7.97403 96.8348 5.38615 95.793 3.47957 93.9456C1.57348 92.0987 0.50388 89.5979 0.5 86.9925V18.9801C0.503878 16.3745 1.5734 13.8734 3.47944 12.026C5.38609 10.178 7.97422 9.13555 10.6772 9.13187H13.4945H13.8578L13.97 8.78626C14.6751 6.61431 16.0756 4.71309 17.9721 3.35934C19.8685 2.00559 22.1619 1.2702 24.5207 1.26166H50.2056C52.5664 1.26983 54.8619 2.00489 56.7609 3.35858C58.6598 4.71227 60.0632 6.61381 60.7715 8.78681L60.8839 9.13187L10.6765 96.8378ZM10.6765 96.8378C10.6767 96.8378 10.6768 96.8379 10.677 96.8379M10.6765 96.8378L10.677 96.8379M10.677 96.8379H64.0553" fill="#08DEF9" stroke="#2254F4"/>
<path d="M39.3938 51.6865H56.2957C57.1116 51.6865 57.8911 52.0008 58.4635 52.5555C59.0353 53.1097 59.3535 53.8579 59.3535 54.6348C59.3535 55.4116 59.0353 56.1599 58.4635 56.7141C57.8911 57.2688 57.1116 57.5831 56.2957 57.5831H39.3938C38.9901 57.5831 38.5907 57.506 38.2185 57.3566C37.8464 57.2072 37.5093 56.9886 37.226 56.7141C36.9428 56.4395 36.7189 56.1145 36.5665 55.7579C36.4142 55.4013 36.3359 55.0197 36.3359 54.6348C36.3359 54.2498 36.4142 53.8682 36.5665 53.5116C36.7189 53.155 36.9428 52.83 37.226 52.5555C37.5093 52.2809 37.8464 52.0623 38.2185 51.9129C38.5907 51.7635 38.9901 51.6865 39.3938 51.6865Z" fill="#08DEF9" stroke="#2254F4"/>
<path d="M39.3938 72.1373H56.2957C57.1116 72.1373 57.8911 72.4516 58.4635 73.0063C59.0353 73.5605 59.3535 74.3088 59.3535 75.0857C59.3535 75.8625 59.0353 76.6107 58.4635 77.1649C57.8911 77.7197 57.1116 78.034 56.2957 78.034H39.3938C38.9901 78.034 38.5907 77.9569 38.2185 77.8075C37.8464 77.6581 37.5093 77.4395 37.226 77.1649C36.9428 76.8904 36.7189 76.5654 36.5665 76.2088C36.4142 75.8522 36.3359 75.4706 36.3359 75.0857C36.3359 74.7007 36.4142 74.3191 36.5665 73.9625C36.7189 73.6059 36.9428 73.2809 37.226 73.0063C37.5093 72.7318 37.8464 72.5132 38.2185 72.3638C38.5907 72.2144 38.9901 72.1373 39.3938 72.1373Z" fill="#08DEF9" stroke="#2254F4"/>
<path d="M39.3768 31.2295L39.3768 31.2297H39.3909H56.2855C57.0838 31.2539 57.8382 31.5779 58.3903 32.1288C58.9435 32.6807 59.2501 33.4167 59.2501 34.1795C59.2501 34.9424 58.9435 35.6783 58.3903 36.2302C57.8382 36.7811 57.0838 37.1051 56.2855 37.1293H39.3909V37.1291L39.3768 37.1295C38.9653 37.1411 38.556 37.0725 38.1731 36.9282C37.7902 36.7839 37.4422 36.567 37.1491 36.291C36.8561 36.0152 36.624 35.686 36.4659 35.3235C36.3078 34.961 36.2266 34.572 36.2266 34.1795C36.2266 33.787 36.3078 33.398 36.4659 33.0355C36.624 32.673 36.8561 32.3438 37.1491 32.068C37.4422 31.7921 37.7902 31.5751 38.1731 31.4308C38.556 31.2865 38.9653 31.2179 39.3768 31.2295Z" fill="#08DEF9" stroke="#2254F4"/>
<path d="M26.9539 28.804L26.9518 28.8003C27.5242 28.2541 28.2991 27.9459 29.1091 27.9475C29.9228 27.9492 30.6997 28.2634 31.2704 28.8166C31.8407 29.3693 32.1588 30.115 32.1605 30.8897C32.1621 31.6641 31.8475 32.4108 31.2801 32.9657C31.2799 32.966 31.2797 32.9662 31.2794 32.9664L24.4843 39.5553C24.4842 39.5554 24.4841 39.5555 24.484 39.5556C23.9118 40.1094 23.133 40.4231 22.3178 40.4231C21.5025 40.4231 20.7236 40.1092 20.1514 39.5553L16.2795 35.8026C16.2792 35.8023 16.279 35.8021 16.2787 35.8018C15.7114 35.2469 15.3968 34.5003 15.3984 33.7259C15.4001 32.9512 15.7182 32.2054 16.2885 31.6528C16.8592 31.0995 17.6361 30.7854 18.4498 30.7837C19.2627 30.7821 20.0403 31.0925 20.6133 31.6424L21.9558 32.9582L22.3034 33.2988L22.6533 32.9606L26.9539 28.804Z" fill="#08DEF9" stroke="#2254F4"/>
<path d="M26.954 49.2579L27.17 49.0492C27.402 48.8548 27.6639 48.6946 27.9471 48.5748C28.3221 48.4161 28.7266 48.3316 29.1367 48.3265C29.5468 48.3215 29.9534 48.396 30.3325 48.5455C30.7116 48.6948 31.055 48.9159 31.3428 49.1947C31.6307 49.4735 31.8571 49.8044 32.0097 50.1675C32.1623 50.5306 32.2382 50.919 32.2333 51.3101C32.2284 51.7012 32.1429 52.0878 31.9812 52.4473C31.8195 52.8068 31.5848 53.1324 31.29 53.4045L31.2899 53.4044L31.2812 53.4128L24.4723 60.0092L24.4718 60.0097C24.189 60.2844 23.8523 60.5031 23.4804 60.6526C23.1086 60.8021 22.7094 60.8793 22.306 60.8793C21.9025 60.8793 21.5034 60.8021 21.1315 60.6526C20.7596 60.5031 20.4229 60.2844 20.1401 60.0097L20.1396 60.0092L16.266 56.2577C16.266 56.2577 16.266 56.2577 16.266 56.2577C15.6938 55.7035 15.3752 54.955 15.375 54.178C15.3748 53.4009 15.6929 52.6523 16.2647 52.0977C16.8371 51.5427 17.6167 51.228 18.4329 51.2278C19.2491 51.2276 20.0289 51.5417 20.6016 52.0964C20.6016 52.0964 20.6017 52.0965 20.6017 52.0965L21.958 53.411L22.3053 53.7477L22.6533 53.4116L26.954 49.2579Z" fill="#08DEF9" stroke="#2254F4"/>
<path d="M23.8169 72.1373H23.8505C24.6694 72.1416 25.4501 72.4605 26.0224 73.0194C26.5944 73.578 26.9116 74.3304 26.9095 75.1105C26.9075 75.8907 26.5865 76.6415 26.0115 77.1974C25.436 77.7538 24.653 78.0689 23.8337 78.0689C23.0143 78.0689 22.2314 77.7538 21.6559 77.1974C21.0809 76.6415 20.7599 75.8907 20.7578 75.1105C20.7558 74.3304 21.0729 73.578 21.6449 73.0194C22.2172 72.4605 22.998 72.1416 23.8169 72.1373Z" fill="#08DEF9" stroke="#2254F4"/>
</g>
<defs>
<clipPath id="clip0_2325_29954">
<rect width="74.7293" height="96.5733" fill="white" transform="translate(0 0.764648)"/>
</clipPath>
</defs>
</svg>
