<svg width="75" height="97" viewBox="0 0 75 97" fill="none" xmlns="http://www.w3.org/2000/svg">
<g clip-path="url(#clip0_2165_27936)">
<path d="M64.0558 7.86728H61.2469C60.5048 5.59065 59.0355 3.60145 57.0511 2.18685C55.0667 0.772248 52.6698 0.00542148 50.2065 -0.00292969H24.5198C22.0583 0.00579986 19.6635 0.773023 17.6816 2.18779C15.6996 3.60256 14.2333 5.59157 13.4945 7.86728H10.6765C7.84612 7.87113 5.13282 8.9626 3.13145 10.9024C1.13009 12.8421 0.00397802 15.4719 0 18.2151V86.2283C0.00397975 88.9713 1.13018 91.6008 3.13164 93.5401C5.13309 95.4794 7.84639 96.5702 10.6765 96.5733H64.0558C66.8859 96.5702 69.5992 95.4794 71.6007 93.5401C73.6021 91.6008 74.7283 88.9713 74.7323 86.2283V18.2151C74.7291 15.4717 73.6033 12.8414 71.6017 10.9015C69.6002 8.96158 66.8864 7.87036 64.0558 7.86728ZM67.6137 86.2283C67.6156 86.6824 67.5251 87.1323 67.3472 87.5524C67.1692 87.9725 66.9075 88.3543 66.5769 88.6761C66.2463 88.9978 65.8535 89.2531 65.4208 89.4273C64.9882 89.6015 64.5243 89.6912 64.0558 89.6912H10.6765C9.73285 89.6904 8.82804 89.327 8.16052 88.6806C7.49299 88.0341 7.11723 87.1575 7.11564 86.2429V18.2151C7.12119 17.3028 7.49861 16.4296 8.16562 15.7859C8.83263 15.1421 9.73517 14.78 10.6765 14.7785H13.4824C14.2247 17.0544 15.6937 19.043 17.6774 20.4575C19.6611 21.872 22.0571 22.6393 24.5198 22.6487H50.2065C52.6681 22.6404 55.0631 21.8734 57.0451 20.4585C59.0271 19.0437 60.4934 17.0544 61.2318 14.7785H64.0558C64.9992 14.7793 65.9037 15.1428 66.5707 15.7893C67.2377 16.4358 67.6129 17.3125 67.6137 18.2268V86.2283ZM19.9936 11.2806C19.9975 10.1222 20.4741 9.0123 21.3192 8.19316C22.1644 7.37402 23.3095 6.91213 24.5048 6.90828H50.1944C51.4029 6.90828 52.5618 7.37354 53.4162 8.20171C54.2707 9.02989 54.7508 10.1531 54.7508 11.3244C54.7508 12.4956 54.2707 13.6188 53.4162 14.447C52.5618 15.2751 51.4029 15.7404 50.1944 15.7404H24.5168C23.917 15.7378 23.3236 15.62 22.771 15.394C22.2183 15.168 21.7173 14.8382 21.2968 14.4236C20.8763 14.009 20.5446 13.5178 20.321 12.9784C20.0973 12.439 19.986 11.8619 19.9936 11.2806Z" fill="#08DEF9"/>
<path d="M56.2957 50.4219H39.3938C38.9265 50.4219 38.4639 50.5111 38.0322 50.6843C37.6006 50.8576 37.2084 51.1117 36.878 51.4319C36.5476 51.7521 36.2856 52.1322 36.1068 52.5506C35.928 52.9689 35.8359 53.4173 35.8359 53.8702C35.8359 54.323 35.928 54.7714 36.1068 55.1898C36.2856 55.6082 36.5476 55.9883 36.878 56.3085C37.2084 56.6287 37.6006 56.8827 38.0322 57.056C38.4639 57.2293 38.9265 57.3185 39.3938 57.3185H56.2957C57.2393 57.3185 58.1442 56.9552 58.8115 56.3085C59.4787 55.6618 59.8535 54.7847 59.8535 53.8702C59.8535 52.9556 59.4787 52.0785 58.8115 51.4319C58.1442 50.7852 57.2393 50.4219 56.2957 50.4219Z" fill="#08DEF9"/>
<path d="M56.2957 70.8726H39.3938C38.9265 70.8726 38.4639 70.9618 38.0322 71.135C37.6006 71.3083 37.2084 71.5623 36.878 71.8825C36.5476 72.2027 36.2856 72.5829 36.1068 73.0013C35.928 73.4196 35.8359 73.868 35.8359 74.3209C35.8359 74.7737 35.928 75.2221 36.1068 75.6405C36.2856 76.0589 36.5476 76.439 36.878 76.7592C37.2084 77.0794 37.6006 77.3334 38.0322 77.5067C38.4639 77.68 38.9265 77.7692 39.3938 77.7692H56.2957C57.2393 77.7692 58.1442 77.4059 58.8115 76.7592C59.4787 76.1125 59.8535 75.2354 59.8535 74.3209C59.8535 73.4063 59.4787 72.5292 58.8115 71.8825C58.1442 71.2359 57.2393 70.8726 56.2957 70.8726Z" fill="#08DEF9"/>
<path d="M56.2928 29.9651H39.3909C38.9147 29.9517 38.4407 30.031 37.9967 30.1983C37.5528 30.3656 37.148 30.6176 36.8064 30.9393C36.4647 31.2609 36.1931 31.6458 36.0076 32.071C35.8221 32.4962 35.7266 32.9532 35.7266 33.4149C35.7266 33.8765 35.8221 34.3335 36.0076 34.7587C36.1931 35.184 36.4647 35.5688 36.8064 35.8904C37.148 36.2121 37.5528 36.4641 37.9967 36.6314C38.4407 36.7987 38.9147 36.8781 39.3909 36.8646H56.2928C57.2189 36.8385 58.098 36.4636 58.7435 35.8195C59.389 35.1754 59.7501 34.3128 59.7501 33.4149C59.7501 32.5169 59.389 31.6543 58.7435 31.0102C58.098 30.3661 57.2189 29.9912 56.2928 29.9651Z" fill="#08DEF9"/>
<path d="M26.6065 27.6798L22.3058 31.8364L20.9615 30.5189C20.2933 29.8766 19.3898 29.5171 18.4488 29.5191C17.5078 29.521 16.6059 29.8841 15.9405 30.529C15.2751 31.174 14.9004 32.0481 14.8984 32.9602C14.8965 33.8722 15.2674 34.7479 15.93 35.3955L19.8036 39.1499C20.4707 39.7956 21.375 40.1584 22.3178 40.1584C23.2607 40.1584 24.165 39.7956 24.8321 39.1499L31.6289 32.5593C32.2915 31.9117 32.6624 31.036 32.6605 30.124C32.6585 29.2119 32.2838 28.3378 31.6184 27.6929C30.953 27.0479 30.0511 26.6848 29.1101 26.6829C28.1691 26.681 27.2656 27.0405 26.5974 27.6827L26.6065 27.6798Z" fill="#08DEF9"/>
<path d="M26.6066 48.1335L22.306 52.2872L20.9496 50.9726C20.282 50.3259 19.3767 49.9628 18.4328 49.963C17.4889 49.9633 16.5838 50.327 15.9166 50.974C15.2494 51.6211 14.8747 52.4986 14.875 53.4134C14.8753 54.3282 15.2505 55.2054 15.9181 55.8521L19.7917 59.6036C20.1216 59.924 20.5135 60.1783 20.945 60.3517C21.3764 60.5252 21.8389 60.6145 22.306 60.6145C22.773 60.6145 23.2355 60.5252 23.667 60.3517C24.0984 60.1783 24.4903 59.924 24.8202 59.6036L31.6291 53.0072C31.9728 52.69 32.2476 52.3093 32.4372 51.8875C32.6269 51.4658 32.7275 51.0116 32.7333 50.5516C32.739 50.0916 32.6497 49.6351 32.4707 49.2091C32.2916 48.783 32.0264 48.396 31.6907 48.0708C31.355 47.7456 30.9555 47.4888 30.5158 47.3155C30.0762 47.1422 29.6051 47.056 29.1305 47.0618C28.6559 47.0676 28.1873 47.1655 27.7523 47.3495C27.3173 47.5336 26.9247 47.8001 26.5976 48.1335H26.6066Z" fill="#08DEF9"/>
<path d="M23.8637 70.8726H23.8156C22.8688 70.8772 21.9626 71.2456 21.2956 71.8969C20.6286 72.5483 20.2554 73.4294 20.2578 74.3471C20.2602 75.2647 20.638 76.144 21.3083 76.7921C21.9787 77.4402 22.8869 77.8041 23.8337 77.8041C24.7805 77.8041 25.6887 77.4402 26.359 76.7921C27.0294 76.144 27.4071 75.2647 27.4095 74.3471C27.4119 73.4294 27.0387 72.5483 26.3718 71.8969C25.7048 71.2456 24.7985 70.8772 23.8517 70.8726H23.8637Z" fill="#08DEF9"/>
</g>
<defs>
<clipPath id="clip0_2165_27936">
<rect width="74.7293" height="96.5733" fill="white"/>
</clipPath>
</defs>
</svg>
