<svg width="40" height="41" viewBox="0 0 40 41" fill="none" xmlns="http://www.w3.org/2000/svg">
<g clip-path="url(#clip0_2165_27386)">
<path d="M14.3042 0.500001H4.00587C3.47993 0.499675 2.95908 0.60438 2.47308 0.80813C1.98708 1.01188 1.54546 1.31069 1.17345 1.68747C0.801434 2.06425 0.506325 2.51163 0.304982 3.00404C0.103638 3.49645 -9.8132e-08 4.02424 0 4.55725V14.9966C-1.97789e-07 16.0735 0.421971 17.1064 1.17315 17.8681C1.92432 18.6298 2.94322 19.0581 4.00587 19.0588H14.3042C15.3665 19.0581 16.385 18.6302 17.1361 17.869C17.8872 17.1078 18.3094 16.0755 18.3101 14.999V4.55725C18.3101 4.02424 18.2065 3.49645 18.0051 3.00404C17.8038 2.51163 17.5087 2.06425 17.1367 1.68747C16.7646 1.31069 16.323 1.01188 15.837 0.80813C15.351 0.60438 14.8302 0.499675 14.3042 0.500001Z" fill="#2254F4"/>
<path d="M14.3042 21.9412H4.00587C2.94407 21.9419 1.92591 22.3694 1.17488 23.1301C0.423843 23.8908 0.00129622 24.9224 7.47559e-07 25.9985V36.4353C-0.000320761 36.9685 0.103066 37.4966 0.304266 37.9893C0.505466 38.482 0.800537 38.9296 1.17258 39.3067C1.54462 39.6837 1.98635 39.9827 2.47251 40.1866C2.95867 40.3905 3.47972 40.4953 4.00587 40.495H14.3042C14.8304 40.4953 15.3514 40.3905 15.8376 40.1866C16.3237 39.9827 16.7655 39.6837 17.1375 39.3067C17.5096 38.9296 17.8046 38.482 18.0058 37.9893C18.207 37.4966 18.3104 36.9685 18.3101 36.4353V25.9985C18.3095 24.9219 17.8872 23.8897 17.1361 23.1285C16.385 22.3673 15.3665 21.9394 14.3042 21.9387V21.9412Z" fill="#2254F4"/>
<path d="M36.0103 21.9412H25.7095C25.1827 21.9399 24.6608 22.0438 24.1737 22.2471C23.6866 22.4503 23.2438 22.7489 22.8706 23.1257C22.4974 23.5025 22.2012 23.9502 21.9989 24.4431C21.7965 24.936 21.692 25.4646 21.6914 25.9984V36.4353C21.6911 36.9685 21.7945 37.4965 21.9957 37.9892C22.1969 38.4819 22.4919 38.9296 22.864 39.3066C23.236 39.6837 23.6778 39.9827 24.1639 40.1866C24.6501 40.3905 25.1711 40.4953 25.6973 40.495H36.0103C36.5364 40.4956 37.0575 40.3911 37.5437 40.1872C38.0298 39.9834 38.4715 39.6844 38.8435 39.3072C39.2154 38.9301 39.5102 38.4823 39.711 37.9894C39.9118 37.4966 40.0147 36.9684 40.0137 36.4353V25.9984C40.0137 24.9224 39.5919 23.8904 38.8412 23.1295C38.0904 22.3686 37.0721 21.9412 36.0103 21.9412Z" fill="#2254F4"/>
<path d="M36.0098 0.500003H25.709C25.1831 0.499677 24.6622 0.604382 24.1762 0.808132C23.6902 1.01188 23.2486 1.31069 22.8766 1.68747C22.5046 2.06425 22.2095 2.51163 22.0081 3.00404C21.8068 3.49645 21.7031 4.02424 21.7031 4.55725V14.9966C21.7031 16.0714 22.1234 17.1023 22.8719 17.8637C23.6205 18.6251 24.6362 19.0548 25.6968 19.0588H36.0098C36.5357 19.0588 37.0565 18.9538 37.5424 18.7497C38.0283 18.5457 38.4697 18.2466 38.8415 17.8696C39.2133 17.4925 39.5081 17.045 39.7092 16.5525C39.9102 16.0599 40.0135 15.5321 40.0132 14.999V4.55725C40.0139 4.02426 39.9107 3.49638 39.7098 3.00384C39.5088 2.5113 39.2139 2.06377 38.8421 1.68689C38.4702 1.31001 38.0286 1.01118 37.5426 0.807512C37.0566 0.603847 36.5357 0.499351 36.0098 0.500003Z" fill="#2254F4"/>
</g>
<defs>
<clipPath id="clip0_2165_27386">
<rect width="40" height="40" fill="white" transform="translate(0 0.5)"/>
</clipPath>
</defs>
</svg>
